{
    "accessors": [
        {
            "bufferView": 2,
            "byteOffset": 0,
            "componentType": 5123,
            "count": 2496,
            "max": [
                417
            ],
            "min": [
                0
            ],
            "name": "accessor_buffer_Plane.002_0",
            "type": "SCALAR"
        },
        {
            "bufferView": 3,
            "byteOffset": 0,
            "componentType": 5121,
            "count": 418,
            "max": [
                28,
                28,
                28,
                28
            ],
            "min": [
                0,
                0,
                0,
                0
            ],
            "name": "accessor_buffer_Plane.002_skin_0",
            "type": "VEC4"
        },
        {
            "bufferView": 1,
            "byteOffset": 0,
            "componentType": 5126,
            "count": 418,
            "max": [
                0.9981688857078552,
                0.999969482421875,
                0.9917905330657959
            ],
            "min": [
                -0.9981688857078552,
                -0.999664306640625,
                -0.9996337890625
            ],
            "name": "accessor_buffer_Plane.002_NORMAL_0",
            "type": "VEC3"
        },
        {
            "bufferView": 3,
            "byteOffset": 16,
            "componentType": 5126,
            "count": 418,
            "max": [
                1.009447455406189,
                0.48004597425460815,
                0.2767139971256256,
                0.16314734518527985
            ],
            "min": [
                0.23442350327968597,
                0.0,
                0.0,
                0.0
            ],
            "name": "accessor_buffer_Plane.002_skin_1",
            "type": "VEC4"
        },
        {
            "bufferView": 0,
            "byteOffset": 0,
            "componentType": 5126,
            "count": 418,
            "max": [
                0.7775593996047974,
                0.11269806325435638,
                1.9835375547409058
            ],
            "min": [
                -0.7775593996047974,
                -0.19393883645534515,
                -0.005854274146258831
            ],
            "name": "accessor_buffer_Plane.002_POSITION_0",
            "type": "VEC3"
        },
        {
            "bufferView": 4,
            "byteOffset": 0,
            "componentType": 5126,
            "count": 29,
            "max": [
                1.0,
                1.0,
                0.7310726642608643,
                0.0,
                1.0000009536743164,
                0.5070947408676147,
                0.9970750212669373,
                0.0,
                0.8768200874328613,
                1.000000238418579,
                1.0000001192092896,
                0.0,
                1.4833123683929443,
                1.069811463356018,
                0.6221134066581726,
                1.0
            ],
            "min": [
                -1.0,
                -1.0,
                -0.7310726642608643,
                0.0,
                -1.0000009536743164,
                -1.0000008344650269,
                -1.0,
                0.0,
                -0.8768200874328613,
                -0.9970742464065552,
                -0.8479984402656555,
                0.0,
                -1.4833123683929443,
                -1.7813003063201904,
                -1.6050941944122314,
                1.0
            ],
            "name": "accessor_buffer_IBM_Plane_skin_0",
            "type": "MAT4"
        }
    ],
    "asset": {
        "version": "2.0"
    },
    "bufferViews": [
        {
            "buffer": 0,
            "byteLength": 5016,
            "byteOffset": 0,
            "byteStride": 12,
            "name": "bufferView_buffer_Plane.002_POSITION_0",
            "target": 34962
        },
        {
            "buffer": 0,
            "byteLength": 5016,
            "byteOffset": 5016,
            "byteStride": 12,
            "name": "bufferView_buffer_Plane.002_NORMAL_0",
            "target": 34962
        },
        {
            "buffer": 0,
            "byteLength": 4996,
            "byteOffset": 10032,
            "name": "bufferView_buffer_Plane.002_0",
            "target": 34963
        },
        {
            "buffer": 0,
            "byteLength": 13376,
            "byteOffset": 15028,
            "byteStride": 32,
            "name": "bufferView_buffer_Plane.002_skin_0",
            "target": 34962
        },
        {
            "buffer": 0,
            "byteLength": 1856,
            "byteOffset": 28404,
            "byteStride": 64,
            "name": "bufferView_buffer_IBM_Plane_skin_0"
        }
    ],
    "buffers": [
        {
            "byteLength": 30260,
            "name": "buffer_person",
            "uri": "buffer_person.bin"
        }
    ],
    "meshes": [
        {
            "name": "Plane.002",
            "primitives": [
                {
                    "attributes": {
                        "JOINTS_0": 1,
                        "NORMAL": 2,
                        "POSITION": 4,
                        "WEIGHTS_0": 3
                    },
                    "indices": 0,
                    "mode": 4
                }
            ]
        }
    ],
    "nodes": [
        {
            "children": [
                1,
                2
            ],
            "name": "metarig",
            "rotation": [
                0.0,
                0.0,
                0.0,
                1.0
            ],
            "scale": [
                1.0,
                1.0,
                1.0
            ],
            "translation": [
                0.0,
                0.0,
                0.0
            ]
        },
        {
            "mesh": 0,
            "name": "Plane",
            "rotation": [
                0.0,
                0.0,
                0.0,
                1.0
            ],
            "scale": [
                1.0,
                1.0,
                1.0
            ],
            "skin": 0,
            "translation": [
                0.0,
                0.0,
                0.0
            ]
        },
        {
            "children": [
                3,
                19,
                20,
                21,
                26
            ],
            "name": "metarig.001_spine",
            "rotation": [
                0.7904554605484009,
                -0.0,
                -0.0,
                0.6125196218490601
            ],
            "scale": [
                1.0,
                0.9999999403953552,
                0.9999998807907104
            ],
            "translation": [
                0.0,
                0.0551999993622303,
                1.0098999738693237
            ]
        },
        {
            "children": [
                4
            ],
            "name": "metarig.001_spine.001",
            "rotation": [
                -0.06447640806436539,
                0.0,
                0.0,
                0.9979192614555359
            ],
            "scale": [
                1.0,
                1.0,
                1.0
            ],
            "translation": [
                0.0,
                0.15221953392028809,
                -1.4901161193847656e-08
            ]
        },
        {
            "children": [
                5
            ],
            "name": "metarig.001_spine.002",
            "rotation": [
                -0.07746414095163345,
                0.0,
                0.0,
                0.996995210647583
            ],
            "scale": [
                1.0,
                0.9999999403953552,
                0.9999999403953552
            ],
            "translation": [
                0.0,
                0.13663677871227264,
                -1.2281816452741623e-08
            ]
        },
        {
            "children": [
                6,
                9,
                13,
                17,
                18
            ],
            "name": "metarig.001_spine.003",
            "rotation": [
                0.0016271441709250212,
                0.0,
                0.0,
                0.9999986886978149
            ],
            "scale": [
                1.0,
                1.0,
                1.0
            ],
            "translation": [
                0.0,
                0.1728876233100891,
                2.3283064365386963e-09
            ]
        },
        {
            "children": [
                7
            ],
            "name": "metarig.001_spine.004",
            "rotation": [
                0.20173779129981995,
                0.0,
                0.0,
                0.9794396758079529
            ],
            "scale": [
                1.0,
                0.9999998807907104,
                0.9999999403953552
            ],
            "translation": [
                0.0,
                0.19257846474647522,
                9.313225746154785e-10
            ]
        },
        {
            "children": [
                8
            ],
            "name": "metarig.001_spine.005",
            "rotation": [
                -0.09485750645399094,
                0.0,
                0.0,
                0.9954908490180969
            ],
            "scale": [
                1.0,
                0.9999999403953552,
                1.0
            ],
            "translation": [
                0.0,
                0.06616336107254028,
                -1.1175870895385742e-08
            ]
        },
        {
            "name": "metarig.001_spine.006",
            "rotation": [
                -0.09371193498373032,
                0.0,
                0.0,
                0.9955993890762329
            ],
            "scale": [
                1.0,
                1.0,
                1.0
            ],
            "translation": [
                0.0,
                0.06270123273134232,
                1.4901161193847656e-08
            ]
        },
        {
            "children": [
                10
            ],
            "name": "metarig.001_shoulder.L",
            "rotation": [
                -0.6051546335220337,
                -0.3458624482154846,
                -0.35613447427749634,
                0.6223626732826233
            ],
            "scale": [
                1.0,
                1.0,
                0.9999998807907104
            ],
            "translation": [
                0.018300000578165054,
                0.1372210830450058,
                0.0782509297132492
            ]
        },
        {
            "children": [
                11
            ],
            "name": "metarig.001_upper_arm.L",
            "rotation": [
                -0.05541998893022537,
                0.7406039834022522,
                -0.27090996503829956,
                0.6124069094657898
            ],
            "scale": [
                1.0000001192092896,
                1.000000238418579,
                1.0
            ],
            "translation": [
                0.007791533600538969,
                0.20079094171524048,
                -0.02038487419486046
            ]
        },
        {
            "children": [
                12
            ],
            "name": "metarig.001_forearm.L",
            "rotation": [
                0.1818138211965561,
                0.0013415865832939744,
                -0.04050319269299507,
                0.9824975728988647
            ],
            "scale": [
                0.9999999403953552,
                1.0,
                1.0000001192092896
            ],
            "translation": [
                -4.395906216814183e-08,
                0.2885097563266754,
                0.0
            ]
        },
        {
            "name": "metarig.001_hand.L",
            "rotation": [
                -0.025046706199645996,
                -0.003553939051926136,
                -0.02818649634718895,
                0.9992825388908386
            ],
            "scale": [
                0.9999999403953552,
                1.0,
                0.9999999403953552
            ],
            "translation": [
                1.1541476396814687e-07,
                0.2628353238105774,
                7.450580596923828e-09
            ]
        },
        {
            "children": [
                14
            ],
            "name": "metarig.001_shoulder.R",
            "rotation": [
                -0.6051546335220337,
                0.3458624482154846,
                0.35613447427749634,
                0.6223626732826233
            ],
            "scale": [
                1.0,
                1.0,
                0.9999998807907104
            ],
            "translation": [
                -0.018300000578165054,
                0.1372210830450058,
                0.0782509297132492
            ]
        },
        {
            "children": [
                15
            ],
            "name": "metarig.001_upper_arm.R",
            "rotation": [
                -0.05541998893022537,
                -0.7406039834022522,
                0.27090996503829956,
                0.6124069094657898
            ],
            "scale": [
                1.0000001192092896,
                1.000000238418579,
                1.0
            ],
            "translation": [
                -0.007791533600538969,
                0.20079094171524048,
                -0.02038487419486046
            ]
        },
        {
            "children": [
                16
            ],
            "name": "metarig.001_forearm.R",
            "rotation": [
                0.1818138211965561,
                -0.0013415865832939744,
                0.04050319269299507,
                0.9824975728988647
            ],
            "scale": [
                0.9999999403953552,
                1.0,
                1.0000001192092896
            ],
            "translation": [
                4.395906216814183e-08,
                0.2885097563266754,
                0.0
            ]
        },
        {
            "name": "metarig.001_hand.R",
            "rotation": [
                -0.025046706199645996,
                0.003553939051926136,
                0.02818649634718895,
                0.9992825388908386
            ],
            "scale": [
                0.9999999403953552,
                1.0,
                0.9999999403953552
            ],
            "translation": [
                -1.1541476396814687e-07,
                0.2628353238105774,
                7.450580596923828e-09
            ]
        },
        {
            "name": "metarig.001_breast.L",
            "rotation": [
                3.1346878870408545e-08,
                0.6969361305236816,
                0.7171332240104675,
                3.0464043732081336e-08
            ],
            "scale": [
                1.0,
                0.9999996423721313,
                0.9999999403953552
            ],
            "translation": [
                0.11840000003576279,
                -0.004880961030721664,
                -0.04275684058666229
            ]
        },
        {
            "name": "metarig.001_breast.R",
            "rotation": [
                3.1346878870408545e-08,
                0.6969361305236816,
                0.7171332240104675,
                3.0464043732081336e-08
            ],
            "scale": [
                1.0,
                0.9999996423721313,
                0.9999999403953552
            ],
            "translation": [
                -0.11840000003576279,
                -0.004880961030721664,
                -0.04275684058666229
            ]
        },
        {
            "name": "metarig.001_pelvis.L",
            "rotation": [
                -0.1524551808834076,
                -0.7933306694030762,
                -0.28550389409065247,
                0.5156272053718567
            ],
            "scale": [
                0.9999999403953552,
                1.0,
                1.0
            ],
            "translation": [
                0.0,
                2.1420419216156006e-08,
                7.450580596923828e-09
            ]
        },
        {
            "name": "metarig.001_pelvis.R",
            "rotation": [
                -0.1524551808834076,
                0.7933306694030762,
                0.28550389409065247,
                0.5156272053718567
            ],
            "scale": [
                0.9999999403953552,
                1.0,
                1.0
            ],
            "translation": [
                0.0,
                2.1420419216156006e-08,
                7.450580596923828e-09
            ]
        },
        {
            "children": [
                22
            ],
            "name": "metarig.001_thigh.L",
            "rotation": [
                0.9865148663520813,
                0.0,
                0.0,
                0.16367152333259583
            ],
            "scale": [
                1.0,
                0.9999999403953552,
                0.9999991655349731
            ],
            "translation": [
                0.09799999743700027,
                0.07081852108240128,
                0.025942280888557434
            ]
        },
        {
            "children": [
                23
            ],
            "name": "metarig.001_shin.L",
            "rotation": [
                0.08754133433103561,
                0.0,
                0.0,
                0.9961609840393066
            ],
            "scale": [
                1.0,
                0.9999998211860657,
                0.9999998807907104
            ],
            "translation": [
                0.0,
                0.5363694429397583,
                -3.725290298461914e-09
            ]
        },
        {
            "children": [
                24,
                25
            ],
            "name": "metarig.001_foot.L",
            "rotation": [
                -0.5273637771606445,
                0.0,
                0.0,
                0.8496395945549011
            ],
            "scale": [
                1.0,
                1.0,
                1.0
            ],
            "translation": [
                7.450580596923828e-09,
                0.4542147219181061,
                -9.313225746154785e-10
            ]
        },
        {
            "name": "metarig.001_toe.L",
            "rotation": [
                -1.2050458408907616e-08,
                0.9612488150596619,
                -0.27568233013153076,
                4.201752190624575e-08
            ],
            "scale": [
                1.0,
                1.0,
                0.9999999403953552
            ],
            "translation": [
                7.450580596923828e-09,
                0.12924565374851227,
                -2.7939677238464355e-09
            ]
        },
        {
            "name": "metarig.001_heel.02.L",
            "rotation": [
                0.6797055602073669,
                0.6797056198120117,
                -0.19493676722049713,
                0.19493676722049713
            ],
            "scale": [
                0.9999998807907104,
                1.0,
                1.0
            ],
            "translation": [
                -0.037999991327524185,
                0.01997033879160881,
                0.08799045532941818
            ]
        },
        {
            "children": [
                27
            ],
            "name": "metarig.001_thigh.R",
            "rotation": [
                0.9865148663520813,
                0.0,
                0.0,
                0.16367152333259583
            ],
            "scale": [
                1.0,
                0.9999999403953552,
                0.9999991655349731
            ],
            "translation": [
                -0.09799999743700027,
                0.07081852108240128,
                0.025942280888557434
            ]
        },
        {
            "children": [
                28
            ],
            "name": "metarig.001_shin.R",
            "rotation": [
                0.08754133433103561,
                0.0,
                0.0,
                0.9961609840393066
            ],
            "scale": [
                1.0,
                0.9999998211860657,
                0.9999998807907104
            ],
            "translation": [
                0.0,
                0.5363694429397583,
                -3.725290298461914e-09
            ]
        },
        {
            "children": [
                29,
                30
            ],
            "name": "metarig.001_foot.R",
            "rotation": [
                -0.5273637771606445,
                0.0,
                0.0,
                0.8496395945549011
            ],
            "scale": [
                1.0,
                1.0,
                1.0
            ],
            "translation": [
                -7.450580596923828e-09,
                0.4542147219181061,
                -9.313225746154785e-10
            ]
        },
        {
            "name": "metarig.001_toe.R",
            "rotation": [
                -1.2050458408907616e-08,
                0.9612488150596619,
                -0.27568233013153076,
                4.201752190624575e-08
            ],
            "scale": [
                1.0,
                1.0,
                0.9999999403953552
            ],
            "translation": [
                -7.450580596923828e-09,
                0.12924565374851227,
                -2.7939677238464355e-09
            ]
        },
        {
            "name": "metarig.001_heel.02.R",
            "rotation": [
                0.6797055602073669,
                -0.6797056198120117,
                0.19493676722049713,
                0.19493676722049713
            ],
            "scale": [
                0.9999998807907104,
                1.0,
                1.0
            ],
            "translation": [
                0.037999991327524185,
                0.01997033879160881,
                0.08799045532941818
            ]
        },
        {
            "children": [
                0
            ],
            "matrix": [
                -1.0,
                0.0,
                0.0,
                0.0,
                0.0,
                0.0,
                1.0,
                0.0,
                0.0,
                1.0,
                0.0,
                0.0,
                0.0,
                0.0,
                0.0,
                1.0
            ],
            "name": "Scene_root"
        }
    ],
    "scene": 0,
    "scenes": [
        {
            "extras": {
                "background_color": [
                    0.05087608844041824,
                    0.05087608844041824,
                    0.05087608844041824
                ],
                "frames_per_second": 24
            },
            "name": "Scene",
            "nodes": [
                31
            ]
        }
    ],
    "skins": [
        {
            "inverseBindMatrices": 5,
            "joints": [
                2,
                3,
                4,
                5,
                6,
                7,
                8,
                9,
                10,
                11,
                12,
                13,
                14,
                15,
                16,
                17,
                18,
                19,
                20,
                21,
                22,
                23,
                24,
                25,
                26,
                27,
                28,
                29,
                30
            ],
            "name": "Plane",
            "skeleton": 2
        }
    ]
}
